<?xml version="1.0" standalone="no"?>
<!DOCTYPE svg PUBLIC "-//W3C//DTD SVG 20010904//EN"
 "http://www.w3.org/TR/2001/REC-SVG-20010904/DTD/svg10.dtd">
<svg version="1.0" xmlns="http://www.w3.org/2000/svg"
 width="154.000000pt" height="111.000000pt" viewBox="0 0 154.000000 111.000000"
 preserveAspectRatio="xMidYMid meet">

<g transform="translate(0.000000,111.000000) scale(0.100000,-0.100000)"
fill="#000000" stroke="none">
<path d="M585 860 c-9 -15 4 -30 23 -29 15 1 15 2 0 6 -10 2 -18 8 -18 13 0 5
8 11 18 13 15 4 15 5 0 6 -9 0 -20 -3 -23 -9z"/>
<path d="M488 833 c18 -8 36 -13 39 -9 11 10 -18 26 -47 26 -23 0 -23 -1 8
-17z"/>
<path d="M705 810 c-58 -15 -85 -30 -131 -72 -50 -46 -79 -94 -89 -151 -4 -20
-11 -37 -15 -37 -16 0 -75 47 -75 60 0 8 16 22 35 31 l35 17 -45 12 c-107 29
-190 28 -190 -1 0 -96 631 -289 957 -293 95 -1 115 2 130 17 21 21 10 45 -29
64 -33 17 -210 45 -184 29 41 -24 79 -63 72 -74 -4 -7 -20 -12 -35 -12 -24 0
-318 61 -488 101 l-53 12 0 47 c0 90 66 187 164 242 l31 17 -30 0 c-16 -1 -43
-5 -60 -9z"/>
<path d="M1145 631 c-6 -11 13 -26 22 -17 4 3 0 6 -8 6 -11 0 -11 2 1 10 9 6
10 10 3 10 -6 0 -14 -4 -18 -9z"/>
<path d="M1160 540 c40 -22 50 -24 50 -11 0 5 -14 14 -31 20 -49 17 -58 12
-19 -9z"/>
<path d="M480 465 c0 -26 63 -136 92 -160 101 -85 245 -99 348 -33 l35 23 -90
6 c-108 7 -182 41 -222 100 -20 30 -35 39 -93 56 -51 15 -70 17 -70 8z"/>
<path d="M378 395 c-9 -21 -8 -28 7 -45 21 -23 48 -26 63 -7 8 10 6 16 -9 25
-10 7 -19 21 -19 32 0 28 -28 25 -42 -5z"/>
<path d="M1059 244 c19 -8 37 -12 40 -9 9 10 -22 25 -49 24 -23 0 -22 -1 9
-15z"/>
</g>
</svg>
